<svg version="1.1" xmlns="http://www.w3.org/2000/svg" viewBox="-737.695277632022 -3752.7039855957028 2953.0225743070127 4299.519952392578">
    <desc>Created with Snap</desc>
    <defs></defs>
    <g>
        <rect x="-737.695277632022" y="-3752.7039855957028" width="2953.0225743070127" height="4299.519952392578" fill="#37393a" style=""></rect>
        <g transform="matrix(83.5222,0,0,83.5222,-514.0175,-3529.0888)">
            <path d="M28.832,15.546C28.937,15.386,29,15.198,29,15c0-0.368-0.202-0.706-0.526-0.88l-1.986-1.07l-11.019,5.834  C15.321,18.961,15.161,19,15,19s-0.321-0.039-0.468-0.116L3.513,13.05l-1.986,1.07C1.202,14.294,1,14.632,1,15  c0,0.198,0.063,0.386,0.168,0.546L15,22.869L28.832,15.546z" fill="#ffffff" style=""></path>
            <path d="M28.474,20.12l-1.986-1.07l-11.02,5.834C15.321,24.962,15.161,25,15,25s-0.321-0.039-0.468-0.116L3.513,19.05l-1.986,1.07  C1.202,20.294,1,20.632,1,21s0.202,0.706,0.526,0.88l13,7C14.674,28.96,14.837,29,15,29s0.326-0.04,0.474-0.12l13-7  C28.798,21.706,29,21.368,29,21S28.798,20.294,28.474,20.12z" fill="#ffffff" style=""></path>
            <path d="M15,16.869l13.832-7.323C28.937,9.385,29,9.198,29,9c0-0.368-0.202-0.706-0.526-0.88l-13-7  c-0.295-0.159-0.652-0.159-0.947,0l-13,7C1.202,8.294,1,8.632,1,9c0,0.198,0.063,0.385,0.168,0.546L15,16.869z" fill="#ffffff" style=""></path>
            <desc>Created with Snap</desc>
            <defs></defs>
        </g>
        <g>
            <g transform="matrix(1.024,0,0,-1.024,0,0)">
            <path d="M129 -234Q111 -234 100 -224Q90 -213 90 -195L90 277Q91 355 127 417Q164 480 226 516Q289 552 367 552Q447 552 510 515Q573 479 609 416Q646 353 646 273Q646 194 610 131Q575 68 514 31Q453 -5 376 -5Q309 -5 254 23Q200 52 167 99L167 -195Q167 -213 156 -224Q146 -234 129 -234ZM367 65Q425 65 471 92Q517 119 543 166Q570 214 570 273Q570 333 543 380Q517 427 471 454Q425 482 367 482Q310 482 264 454Q218 427 192 380Q166 333 166 273Q166 214 192 166Q218 119 264 92Q310 65 367 65ZM1074 -5Q996 -5 933 31Q871 67 834 129Q798 192 797 270L797 742Q797 760 807 770Q818 781 836 781Q853 781 863 770Q874 760 874 742L874 448Q907 495 961 523Q1016 552 1083 552Q1160 552 1221 515Q1282 479 1317 416Q1353 353 1353 274Q1353 194 1316 131Q1280 68 1217 31Q1154 -5 1074 -5ZM1074 65Q1132 65 1178 92Q1224 120 1250 167Q1277 214 1277 274Q1277 333 1250 380Q1224 428 1178 455Q1132 482 1074 482Q1017 482 971 455Q925 428 899 380Q873 333 873 274Q873 214 899 167Q925 120 971 92Q1017 65 1074 65Z" fill="#ffffff" style=""></path>
            </g>
        </g>
    </g>
</svg>